<?xml version="1.0" standalone="no"?>
<!DOCTYPE svg PUBLIC "-//W3C//DTD SVG 20010904//EN"
 "http://www.w3.org/TR/2001/REC-SVG-20010904/DTD/svg10.dtd">
<svg version="1.0" xmlns="http://www.w3.org/2000/svg"
 width="1025.000000pt" height="1025.000000pt" viewBox="0 0 1025.000000 1025.000000"
 preserveAspectRatio="xMidYMid meet">
<metadata>
Created by potrace 1.11, written by Peter Selinger 2001-2013
</metadata>
<g transform="translate(0.000000,1025.000000) scale(0.100000,-0.100000)"
fill="#000000" stroke="none">
<path d="M4770 9904 c-138 -11 -359 -40 -485 -64 -130 -25 -171 -34 -275 -61
-208 -55 -254 -68 -314 -89 -33 -11 -66 -20 -73 -20 -54 0 -658 -266 -780
-343 -24 -15 -45 -27 -47 -27 -13 0 -314 -189 -426 -268 -245 -171 -550 -441
-759 -671 -147 -164 -167 -187 -211 -245 -25 -33 -70 -92 -100 -132 -81 -107
-194 -272 -225 -329 -16 -27 -43 -73 -61 -101 -61 -97 -153 -273 -224 -430
-77 -169 -174 -410 -186 -459 -3 -16 -17 -61 -30 -100 -27 -83 -88 -309 -109
-405 -2 -8 -11 -49 -20 -90 -31 -139 -58 -327 -75 -540 -12 -145 -12 -671 0
-810 15 -171 29 -301 40 -360 6 -30 12 -66 15 -80 20 -118 109 -472 149 -595
13 -38 27 -83 30 -100 12 -47 108 -285 185 -457 71 -157 144 -297 218 -418 22
-36 52 -87 67 -115 29 -52 182 -273 249 -360 21 -27 58 -75 80 -105 23 -31 51
-65 62 -77 11 -12 70 -77 130 -145 145 -162 361 -365 581 -545 141 -115 417
-298 648 -431 192 -109 636 -303 822 -358 282 -84 532 -148 629 -160 17 -2 36
-6 44 -9 29 -11 242 -39 396 -52 118 -10 746 -10 855 0 190 17 384 42 399 51
3 2 22 7 41 10 19 3 60 10 90 17 30 6 64 12 75 14 36 6 328 86 403 111 40 13
77 24 82 24 15 0 234 83 302 114 31 14 59 26 63 26 3 0 36 14 73 31 37 18 99
46 137 63 104 47 367 196 520 294 141 91 363 255 445 329 19 17 73 63 120 103
107 90 287 266 353 345 27 33 69 80 92 105 208 222 494 650 658 985 44 88 82
167 87 176 32 62 154 375 183 469 40 129 115 400 122 443 3 15 12 53 20 85 9
31 24 113 35 182 57 375 55 340 55 795 0 455 2 420 -55 795 -11 69 -26 151
-35 182 -8 32 -17 70 -20 85 -2 16 -14 62 -25 103 -11 41 -29 109 -40 150 -51
188 -128 408 -199 565 -10 22 -29 65 -42 95 -41 98 -174 351 -254 485 -136
227 -362 540 -490 675 -23 25 -65 72 -92 105 -143 170 -483 472 -728 646 -307
219 -622 396 -930 524 -186 78 -335 135 -348 135 -8 0 -34 7 -58 16 -55 19
-390 111 -439 120 -14 3 -79 16 -145 29 -66 13 -156 28 -200 34 -44 6 -111 16
-150 22 -66 10 -807 21 -905 13z m715 -364 c1074 -92 2042 -537 2791 -1285
729 -729 1157 -1621 1286 -2680 21 -174 18 -791 -5 -975 -81 -647 -288 -1250
-611 -1784 -718 -1186 -1917 -1956 -3301 -2123 -215 -26 -807 -26 -1015 0
-612 76 -1182 265 -1700 562 -349 200 -639 423 -931 714 -713 712 -1153 1620
-1275 2631 -22 183 -30 657 -15 847 106 1296 744 2454 1776 3224 657 489 1416
781 2248 864 162 16 589 18 752 5z"/>
<path d="M4780 9444 c-74 -5 -370 -51 -506 -78 -225 -45 -603 -162 -779 -240
-16 -8 -55 -24 -85 -37 -184 -75 -569 -293 -752 -423 -82 -59 -240 -179 -263
-200 -13 -12 -48 -41 -78 -66 -73 -60 -366 -354 -453 -455 -151 -176 -359
-465 -439 -610 -15 -27 -30 -54 -35 -60 -21 -28 -154 -287 -195 -380 -211
-477 -332 -957 -371 -1470 -11 -151 -12 -422 -1 -565 5 -74 10 -144 9 -155 -1
-37 35 -298 49 -355 4 -19 11 -51 14 -70 44 -260 158 -628 283 -915 65 -149
214 -433 286 -545 214 -333 351 -505 605 -763 318 -323 586 -527 996 -759 475
-268 1132 -471 1660 -514 33 -2 104 -9 159 -14 126 -13 425 -13 552 0 55 5
124 11 154 14 51 5 218 24 265 31 228 34 781 187 901 250 16 8 33 15 38 15 25
0 366 163 491 235 375 215 622 402 923 699 219 216 296 304 470 541 110 150
189 274 282 439 61 110 180 348 180 362 0 2 9 23 20 47 65 141 162 429 211
622 141 562 173 1095 100 1660 -47 357 -182 849 -312 1132 -10 24 -19 45 -19
48 0 15 -176 355 -235 455 -379 638 -934 1189 -1569 1554 -117 68 -324 172
-416 211 -36 15 -78 33 -95 40 -226 102 -655 225 -940 270 -60 9 -148 24 -195
32 -64 11 -180 16 -470 18 -212 1 -410 1 -440 -1z m4015 -4579 l0 -40 -935 0
c-1342 0 -6151 24 -6240 31 -41 3 -78 11 -82 17 -24 38 -148 37 3631 35 l3626
-3 0 -40z m-6716 -216 c29 -12 70 -42 96 -70 51 -54 47 -32 50 -304 2 -170 -8
-300 -36 -465 -22 -133 -27 -145 -82 -201 -54 -55 -117 -82 -208 -87 -75 -4
-81 -3 -128 28 -80 50 -142 147 -195 302 -37 109 -50 219 -44 390 5 129 9 153
31 202 86 188 331 285 516 205z m534 -21 c18 -14 33 -63 95 -323 23 -93 73
-300 112 -460 38 -159 72 -300 75 -312 4 -17 -2 -26 -26 -38 -38 -20 -73 -13
-93 18 -8 12 -33 112 -55 222 -49 233 -90 432 -126 599 -14 65 -25 123 -25
129 0 35 -7 11 -205 -688 -46 -163 -83 -275 -93 -282 -27 -22 -70 -16 -88 12
-18 28 -22 14 86 355 32 102 97 311 145 465 59 189 94 286 107 298 24 20 67
22 91 5z m6178 -19 c8 -16 8 -157 0 -548 -7 -289 -14 -536 -16 -548 -3 -14
-17 -25 -37 -31 -18 -6 -207 -13 -420 -15 -432 -6 -418 -8 -418 61 0 34 -13
246 -25 402 -2 36 -9 151 -15 255 -6 105 -13 196 -15 203 -11 31 -7 173 5 187
17 20 43 19 68 -2 19 -16 22 -36 32 -187 6 -93 15 -233 20 -310 5 -78 12 -190
16 -251 3 -60 9 -148 13 -195 l6 -85 129 2 c71 2 130 4 132 5 1 2 5 224 9 493
4 270 9 499 12 510 8 29 33 55 53 55 10 0 25 -11 34 -24 14 -22 15 -79 10
-525 l-6 -501 138 0 c77 0 144 4 150 8 8 5 13 165 18 521 6 468 8 516 24 527
27 21 70 17 83 -7z m-5257 -21 c10 -17 16 -77 20 -213 4 -104 9 -239 12 -300
22 -479 23 -559 4 -579 -18 -18 -68 -25 -90 -11 -6 4 -10 98 -10 256 l0 249
-27 -6 c-16 -4 -34 -11 -41 -17 -25 -20 -169 -225 -229 -327 -105 -179 -125
-194 -184 -142 l-32 29 84 123 c46 68 121 167 165 220 l82 98 -81 12 c-172 25
-237 64 -286 170 -47 101 -52 178 -18 254 14 30 46 75 71 100 43 41 54 46 154
70 136 32 144 33 279 35 107 1 113 0 127 -21z m2564 5 c35 -4 56 -17 103 -61
77 -71 101 -117 107 -207 3 -57 -1 -84 -22 -148 -34 -100 -66 -147 -130 -192
-81 -55 -256 -105 -373 -105 l-43 0 5 -42 c2 -24 7 -117 10 -207 6 -184 4
-190 -66 -191 -70 0 -67 -29 -73 622 -4 408 -3 480 10 492 42 42 299 64 472
39z m-1365 -14 c24 -11 25 -14 31 -173 4 -88 13 -280 21 -426 29 -557 29 -526
3 -544 -30 -21 -61 -20 -81 2 -14 16 -18 55 -22 263 -4 134 -8 254 -11 266 -4
21 -4 21 -64 -9 -54 -28 -69 -31 -147 -31 -111 0 -186 21 -241 68 -92 79 -123
189 -103 360 18 150 52 209 111 190 24 -8 25 -25 5 -128 -27 -141 -15 -246 36
-316 35 -49 67 -66 141 -75 112 -12 204 27 234 101 10 24 14 87 14 236 0 234
4 247 73 216z m2961 -2 c21 -15 24 -57 46 -557 6 -146 15 -328 20 -405 9 -167
3 -190 -50 -190 -27 0 -37 5 -46 25 -8 16 -16 149 -23 360 -6 184 -14 368 -18
408 l-6 73 -89 -203 c-49 -112 -95 -216 -102 -233 -72 -158 -166 -378 -166
-389 0 -33 -13 -46 -45 -46 -18 0 -37 6 -43 13 -5 6 -15 95 -21 197 -6 102
-14 210 -16 240 -3 30 -10 136 -16 235 -6 99 -14 230 -18 290 -6 86 -5 115 6
133 29 47 93 9 93 -56 1 -20 5 -98 10 -172 5 -74 14 -216 20 -315 6 -99 13
-191 15 -205 2 -14 4 -45 5 -70 1 -49 -9 -70 165 345 18 44 67 159 108 255 41
96 80 193 87 215 20 60 49 78 84 52z m-768 -5 c26 -17 32 -58 39 -262 3 -118
8 -233 10 -255 2 -22 9 -170 15 -329 12 -276 12 -290 -6 -303 -28 -20 -62 -16
-79 10 -12 19 -17 73 -22 261 -3 130 -9 238 -12 240 -7 4 -391 -51 -395 -56
-2 -2 0 -41 5 -88 4 -47 10 -146 14 -222 l7 -136 -26 -17 c-24 -16 -28 -16
-49 -2 -26 17 -24 5 -47 352 -14 209 -29 433 -40 589 -9 120 -8 142 5 163 19
29 46 29 72 1 18 -21 22 -45 32 -240 7 -119 14 -239 18 -266 l5 -48 92 13
c101 15 298 52 303 57 2 1 -1 117 -6 257 -9 248 -9 254 11 272 22 18 37 21 54
9z m-1358 -22 c8 -42 -14 -48 -293 -81 -148 -17 -272 -33 -274 -35 -1 -1 0
-89 4 -194 l8 -192 61 7 c33 4 128 15 211 25 171 21 191 18 181 -33 -3 -17 -9
-33 -12 -36 -5 -5 -140 -20 -341 -37 -45 -4 -86 -10 -91 -13 -8 -5 5 -449 13
-459 2 -2 106 9 231 24 126 14 242 27 257 27 38 0 50 -15 42 -51 -8 -37 2 -35
-295 -62 -273 -25 -330 -27 -341 -9 -5 8 -9 107 -9 220 0 113 -3 348 -7 522
l-6 316 24 9 c13 5 52 12 86 15 35 4 100 11 145 17 306 40 401 45 406 20z
m3230 -1387 l3 -43 -523 0 c-552 0 -3912 15 -5678 25 -873 5 -1047 8 -1059 20
-12 11 -12 17 -1 30 11 13 372 15 3634 13 l3621 -3 3 -42z"/>
<path d="M1845 4566 c-90 -28 -161 -94 -191 -177 -28 -80 -38 -219 -25 -330
32 -264 143 -449 269 -449 40 0 128 47 153 81 47 67 79 295 79 569 0 186 0
186 -27 228 -51 79 -156 110 -258 78z"/>
<path d="M3270 4520 c-196 -24 -280 -90 -280 -221 0 -63 29 -130 70 -159 63
-45 273 -75 377 -54 l30 6 -4 196 c-2 109 -6 206 -8 218 -4 18 -12 21 -62 21
-32 1 -87 -3 -123 -7z"/>
<path d="M5759 4508 c-47 -10 -47 -10 -43 -46 2 -21 8 -135 14 -256 5 -120 11
-221 14 -224 11 -10 177 19 248 43 140 47 199 118 206 246 2 38 -1 84 -8 105
-17 52 -84 121 -129 134 -45 12 -240 11 -302 -2z"/>
</g>
</svg>
